#!OML:ASF E:\Steps\Project 1\Capture day 1\Session 2\Subject.ASF
:FULLY-SPECIFIED
:DEGREES
345
root 9.61787 14.588 16.3953 -162.243 0.850792 180.566
lowerback -7.14512 -1.44896 -5.25904
upperback 4.15021 -1.04882 -2.01385
thorax 8.48726 -0.674145 0.676812
lowerneck 6.63908 -4.49432 1.68451
upperneck -7.71975 -5.75615 0.602394
head -3.71838 -2.90246 0.207389
rclavicle -1.23246e-014 -6.52014e-014
rhumerus -46.0567 -4.79573 -84.8083
rradius 35.4895
rwrist 1.98377
rhand -6.3144 -55.9002
rfingers 7.12502
rthumb -160.47 95.0607
lclavicle -1.23246e-014 -6.52014e-014
lhumerus -35.2595 -4.67245 79.8804
lradius 27.1859
lwrist -5.20949
lhand -28.2875 -15.5271
lfingers 7.12502
lthumb -1.66363 14.4461
rfemur -55.9948 3.1202 22.4427
rtibia 63.3928
rfoot -22.2965 -1.53426
rtoes -23.241
lfemur -57.1186 -2.46579 -17.5239
ltibia 66.7894
lfoot -11.3453 2.5119
ltoes -39.1327
346
root 9.62104 14.3524 16.312 -162.164 1.21974 180.237
lowerback -6.71976 -1.47737 -5.59571
upperback 3.9033 -1.07256 -2.202
thorax 7.97882 -0.68213 0.67816
lowerneck 6.0523 -4.36515 2.16699
upperneck -7.98543 -5.55438 0.317103
head -3.72248 -2.79823 0.00866338
rclavicle -4.77083e-015 -1.90833e-014
rhumerus -44.2479 -5.51919 -84.8823
rradius 33.1592
rwrist 4.30495
rhand -6.1716 -56.1433
rfingers 7.12502
rthumb -160.333 94.8316
lclavicle -4.77083e-015 -1.90833e-014
lhumerus -34.1272 -3.25187 78.9175
lradius 26.0839
lwrist -7.19188
lhand -29.0858 -15.5411
lfingers 7.12502
lthumb -2.43462 14.4248
rfemur -57.4126 3.29538 22.2702
rtibia 66.6361
rfoot -24.1625 -2.00766
rtoes -22.5272
lfemur -58.1778 -2.39533 -17.9802
ltibia 69.7175
lfoot -14.1369 2.86377
ltoes -40.4078
347
root 9.62082 14.1268 16.2374 -162.242 1.51241 180.23
lowerback -6.95601 -1.39678 -5.51951
upperback 4.07055 -0.923193 -2.33075
thorax 8.28635 -0.603551 0.511993
lowerneck 6.13832 -4.47674 1.98048
upperneck -8.22142 -5.66451 0.855285
head -3.79843 -2.86865 0.229044
rclavicle -1.51076e-014 -4.77083e-015
rhumerus -42.2926 -6.53553 -84.8644
rradius 31.5151
rwrist 6.54542
rhand -6.13266 -56.3904
rfingers 7.12502
rthumb -160.295 94.5883
lclavicle -1.51076e-014 -4.77083e-015
lhumerus -32.8565 -1.92186 78.0542
lradius 25.538
lwrist -9.13537
lhand -29.4505 -14.6923
lfingers 7.12502
lthumb -2.78677 15.2693
rfemur -58.5077 3.47292 22.4558
rtibia 69.6865
rfoot -25.7663 -2.40679
rtoes -23.5053
lfemur -58.8632 -2.30789 -18.0771
ltibia 72.2712
lfoot -16.3381 3.00954
ltoes -40.3929
348
root 9.62114 13.9209 16.1757 -162.266 1.77107 180.31
lowerback -6.33985 -1.2197 -5.4853
upperback 3.80759 -0.757038 -2.34799
thorax 7.6315 -0.507868 0.516004
lowerneck 5.68545 -4.6184 2.00307
upperneck -7.83587 -5.86154 0.943569
head -3.57285 -2.97023 0.244288
rclavicle 8.34896e-015 -1.43125e-014
rhumerus -41.3495 -7.38052 -84.7274
rradius 30.8607
rwrist 8.00808
rhand -6.31544 -56.3404
rfingers 7.12502
rthumb -160.471 94.6204
lclavicle 8.34896e-015 -1.43125e-014
lhumerus -32.1384 -1.30105 77.7232
lradius 25.36
lwrist -10.0594
lhand -29.959 -13.873
lfingers 7.12502
lthumb -3.27787 16.0815
rfemur -59.6515 3.75203 22.6839
rtibia 72.7083
rfoot -27.1444 -2.63102
rtoes -24.7846
lfemur -59.6912 -2.23238 -18.0303
ltibia 74.8283
lfoot -18.4192 2.562
ltoes -37.1837
349
root 9.62476 13.7497 16.1354 -162.36 1.67723 180.054
lowerback -5.32598 -1.17927 -5.89954
upperback 3.57398 -0.760018 -2.30447
thorax 6.80305 -0.510599 0.815511
lowerneck 4.72174 -4.66723 1.80967
upperneck -7.31746 -5.95708 1.07976
head -3.19552 -3.013 0.287878
rclavicle 1.15295e-014 5.56597e-015
rhumerus -40.5209 -8.07749 -84.5282
rradius 30.9857
rwrist 9.51794
rhand -7.81051 -56.743
rfingers 7.12502
rthumb -161.909 94.0784
lclavicle 1.15295e-014 5.56597e-015
lhumerus -31.4063 -1.3464 77.891
lradius 25.6423
lwrist -9.50161
lhand -30.6041 -13.2932
lfingers 7.12502
lthumb -3.90088 16.6509
rfemur -61.112 3.51847 22.6193
rtibia 75.7034
rfoot -27.651 -2.80363
rtoes -25.0036
lfemur -60.4964 -2.55782 -18.2467
ltibia 77.1362
lfoot -20.1533 2.02846
ltoes -35.3355
350
root 9.62338 13.5992 16.0948 -162.387 1.74196 179.69
lowerback -5.5556 -1.17 -6.47652
upperback 4.06138 -0.632561 -2.21342
thorax 7.46818 -0.491606 1.23501
lowerneck 5.87206 -5.47883 0.986468
upperneck -8.13598 -7.11265 0.841219
head -3.68203 -3.54993 0.458857
rclavicle 1.43125e-014 2.62396e-014
rhumerus -38.6246 -8.33506 -84.6253
rradius 31.5042
rwrist 10.7138
rhand -8.84236 -57.075
rfingers 7.12502
rthumb -162.902 93.6574
lclavicle 1.43125e-014 2.62396e-014
lhumerus -29.6863 -1.57755 78.3928
lradius 26.202
lwrist -8.08789
lhand -31.0448 -13.0894
lfingers 7.12502
lthumb -4.32636 16.8464
rfemur -62.555 3.31042 22.4203
rtibia 78.367
rfoot -27.923 -3.10299
rtoes -25.8486
lfemur -61.1371 -2.79812 -18.637
ltibia 78.8581
lfoot -21.4948 2.01227
ltoes -32.3461
351
root 9.62058 13.4726 16.0584 -162.282 1.75409 179.605
lowerback -4.801 -1.13432 -6.54318
upperback 3.78201 -0.674914 -2.16139
thorax 6.73452 -0.498371 1.33847
lowerneck 5.42991 -5.34865 1.19226
upperneck -8.14439 -6.9582 0.332021
head -3.62847 -3.45333 0.235988
rclavicle -3.18055e-015 -5.56597e-015
rhumerus -38.1881 -7.65114 -85.0974
rradius 32.8033
rwrist 11.1917
rhand -9.88275 -57.7983
rfingers 7.12502
rthumb -163.903 92.8502
lclavicle -3.18055e-015 -5.56597e-015
lhumerus -29.4454 -2.75123 78.9226
lradius 27.3862
lwrist -5.90739
lhand -31.0771 -13.3323
lfingers 7.12502
lthumb -4.35755 16.6029
rfemur -63.8607 3.2645 22.4875
rtibia 80.5422
rfoot -28.415 -3.59433
rtoes -28.2549
lfemur -61.8944 -3.01693 -18.6811
ltibia 80.3862
lfoot -22.7782 1.9628
ltoes -37.6302
352
root 9.62106 13.3709 16.0285 -162.097 1.76711 179.815
lowerback -4.41508 -1.06264 -6.36842
upperback 3.67284 -0.653425 -2.03042
thorax 6.38968 -0.478556 1.38791
lowerneck 5.86797 -5.88302 1.38845
upperneck -8.60315 -7.6996 -0.280816
head -3.91811 -3.78964 0.0666314
rclavicle -4.37326e-015 -3.97569e-014
rhumerus -37.5996 -6.42991 -85.7983
rradius 34.4854
rwrist 10.979
rhand -10.6482 -58.381
rfingers 7.12502
rthumb -164.641 92.2094
lclavicle -4.37326e-015 -3.97569e-014
lhumerus -28.98 -4.40053 79.508
lradius 28.6896
lwrist -3.47886
lhand -31.5308 -13.9232
lfingers 7.12502
lthumb -4.79572 16.0025
rfemur -64.916 3.34838 22.8006
rtibia 81.7071
rfoot -28.5211 -3.72608
rtoes -29.5517
lfemur -62.6996 -3.07459 -18.4041
ltibia 81.7905
lfoot -24.0938 1.96782
ltoes -38.7741
353
root 9.62275 13.2892 15.9959 -162.086 1.87618 179.977
lowerback -4.16469 -0.98224 -6.25099
upperback 3.73544 -0.576503 -1.96625
thorax 6.30416 -0.436415 1.39993
lowerneck 3.46582 -4.7321 1.56112
upperneck -8.42083 -6.08117 0.223955
head -3.35925 -3.00395 0.0427266
rclavicle -1.98785e-014 -5.725e-014
rhumerus -36.8323 -4.81055 -86.685
rradius 36.0916
rwrist 10.0184
rhand -11.0989 -58.2616
rfingers 7.12502
rthumb -165.075 92.2961
lclavicle -1.98785e-014 -5.725e-014
lhumerus -28.3464 -6.27413 79.9686
lradius 29.8977
lwrist -1.34188
lhand -31.3804 -14.347
lfingers 7.12502
lthumb -4.65041 15.582
rfemur -65.417 3.60285 22.9656
rtibia 82.8201
rfoot -29.1878 -3.75237
rtoes -29.5912
lfemur -63.06 -3.04746 -18.2324
ltibia 82.823
lfoot -25.4085 2.15241
ltoes -40.8494
354
root 9.62022 13.2235 15.9529 -162.266 1.93785 179.988
lowerback -3.95327 -0.948891 -6.16094
upperback 3.89451 -0.537322 -1.97004
thorax 6.34722 -0.412732 1.35045
lowerneck 3.87992 -4.98435 1.67989
upperneck -9.09495 -6.37572 0.348724
head -3.67681 -3.14996 0.0992522
rclavicle 2.78299e-015 9.54166e-015
rhumerus -36.0005 -3.09836 -87.5389
rradius 37.5784
rwrist 8.75988
rhand -10.8258 -57.8506
rfingers 7.12502
rthumb -164.812 92.7268
lclavicle 2.78299e-015 9.54166e-015
lhumerus -27.6736 -8.36652 80.3811
lradius 31.0209
lwrist 0.485864
lhand -30.9168 -14.4796
lfingers 7.12502
lthumb -4.20282 15.4586
rfemur -65.5357 3.72471 22.9425
rtibia 83.791
rfoot -30.2285 -3.96669
rtoes -30.0582
lfemur -62.9867 -3.16052 -18.2522
ltibia 83.5285
lfoot -26.5286 2.19559
ltoes -39.6164
355
root 9.61583 13.1711 15.9058 -162.354 1.9831 180.003
lowerback -3.45863 -0.88557 -5.97642
upperback 3.71955 -0.516806 -2.01124
thorax 5.87015 -0.381233 1.21514
lowerneck 3.83977 -4.87014 2.1521
upperneck -9.35162 -6.20591 -0.00321474
head -3.79063 -3.06186 -0.100759
rclavicle -1.27222e-014 -1.59028e-014
rhumerus -35.6576 -1.49014 -88.2835
rradius 39.0566
rwrist 7.46672
rhand -10.335 -57.4578
rfingers 7.12502
rthumb -164.339 93.156
lclavicle -1.27222e-014 -1.59028e-014
lhumerus -27.4603 -10.3392 80.73
lradius 32.2177
lwrist 1.79282
lhand -30.0638 -14.0314
lfingers 7.12502
lthumb -3.37907 15.9216
rfemur -65.219 3.82274 22.8674
rtibia 83.9832
rfoot -31.354 -4.12593
rtoes -30.1891
lfemur -62.8235 -3.24751 -18.2938
ltibia 83.9526
lfoot -27.3913 2.05883
ltoes -39.1077
